<svg width="32" height="31" viewBox="0 0 32 31" fill="none" xmlns="http://www.w3.org/2000/svg">
  <path d="M24.5735 24.0808L27.4151 22.66V19.1017M18.8775 12.7017L16.036 14.1225L18.8775 12.7017ZM16.036 14.1225L13.1944 12.7017L16.036 14.1225ZM16.036 14.1225V17.6809V14.1225ZM27.4151 8.42656L24.5735 9.84735L27.4151 8.42656ZM27.4151 8.42656L24.5735 7.00577L27.4151 8.42656ZM27.4151 8.42656V11.9849V8.42656ZM18.8775 4.1642L16.036 2.74341L13.1944 4.1642H18.8775ZM4.65686 8.42656L7.49844 7.00577L4.65686 8.42656ZM4.65686 8.42656L7.49844 9.84735L4.65686 8.42656ZM4.65686 8.42656V11.9849V8.42656ZM16.036 28.3432L13.1944 26.9224L16.036 28.3432ZM16.036 28.3432L18.8775 26.9224L16.036 28.3432ZM16.036 28.3432V24.7848V28.3432ZM7.49844 24.0808L4.65686 22.66V19.1017L7.49844 24.0808Z" stroke="#1BFF68" stroke-width="1.5" stroke-linecap="round" stroke-linejoin="round" />
</svg>
