<svg width="22" height="22" viewBox="0 0 22 22" fill="none" xmlns="http://www.w3.org/2000/svg">
  <path d="M1.46313 9.81622C1.46313 9.85482 1.46384 9.89239 1.46522 9.92895M1.46522 9.92895C1.51814 11.3291 2.56393 11.2388 3.02479 10.6298C3.39577 10.0996 3.93907 9.76512 4.54442 9.76512C5.66249 9.76512 6.56886 10.9062 6.56886 12.3138C6.56886 13.7213 5.66249 14.8624 4.54442 14.8624C3.93907 14.8624 3.39577 14.5279 3.02479 13.9977C2.5519 13.3729 1.46313 13.294 1.46313 14.8113L1.46313 18.823C1.46313 19.9275 2.35857 20.823 3.46313 20.823H7.46566C8.98294 20.823 8.90409 19.7342 8.27925 19.2613C7.74906 18.8903 7.41456 18.347 7.41456 17.7417C7.41456 16.6236 8.55562 15.7172 9.9632 15.7172C11.3708 15.7172 12.5119 16.6236 12.5119 17.7417C12.5119 18.347 12.1774 18.8903 11.6472 19.2613C11.0223 19.7342 10.9435 20.823 12.4607 20.823H13.9687C15.0733 20.823 15.9687 19.9275 15.9687 18.823V14.7855C15.9687 13.2682 17.0575 13.347 17.5304 13.9719C17.9014 14.5021 18.4447 14.8366 19.05 14.8366C20.1681 14.8366 21.0745 13.6955 21.0745 12.2879C21.0745 10.8803 20.1681 9.73928 19.05 9.73928C18.4447 9.73928 17.9014 10.0738 17.5304 10.604C17.0575 11.2288 15.9687 11.3077 15.9687 9.79038V8.28273C15.9687 7.17816 15.0733 6.28273 13.9687 6.28273H12.4607C10.9435 6.28273 11.0223 5.19396 11.6472 4.72107C12.1774 4.35009 12.5119 3.80679 12.5119 3.20144C12.5119 2.08337 11.3708 1.177 9.9632 1.177C8.55562 1.177 7.41456 2.08337 7.41456 3.20144C7.41456 3.80679 7.74906 4.35009 8.27925 4.72107C8.90409 5.19396 8.98294 6.28273 7.46566 6.28273H3.46522C2.36065 6.28273 1.46522 7.17816 1.46522 8.28273V9.92895Z" stroke="#0EDEAF" stroke-width="1.5" />
</svg>
