<svg width="22" height="22" viewBox="0 0 22 22" fill="none" xmlns="http://www.w3.org/2000/svg">
  <path d="M4.88746 9.06304H6.64788C8.4083 9.06304 9.28851 8.18283 9.28851 6.42241V4.66199C9.28851 2.90157 8.4083 2.02136 6.64788 2.02136H4.88746C3.12704 2.02136 2.24683 2.90157 2.24683 4.66199V6.42241C2.24683 8.18283 3.12704 9.06304 4.88746 9.06304Z" stroke="#0EDEAF" stroke-width="1.5" stroke-miterlimit="10" stroke-linecap="round" stroke-linejoin="round" />
  <path d="M15.45 9.06304H17.2104C18.9708 9.06304 19.851 8.18283 19.851 6.42241V4.66199C19.851 2.90157 18.9708 2.02136 17.2104 2.02136H15.45C13.6895 2.02136 12.8093 2.90157 12.8093 4.66199V6.42241C12.8093 8.18283 13.6895 9.06304 15.45 9.06304Z" stroke="#0EDEAF" stroke-width="1.5" stroke-miterlimit="10" stroke-linecap="round" stroke-linejoin="round" />
  <path d="M13.2181 17.9719L14.4629 19.2167C15.7077 20.4615 16.9525 20.4615 18.1973 19.2167L19.4421 17.9719C20.6869 16.7271 20.6869 15.4823 19.4421 14.2375L18.1973 12.9927C16.9525 11.7479 15.7077 11.7479 14.4629 12.9927L13.2181 14.2375C11.9733 15.4823 11.9733 16.7271 13.2181 17.9719Z" stroke="#0EDEAF" stroke-width="1.5" stroke-miterlimit="10" stroke-linecap="round" stroke-linejoin="round" />
  <path d="M4.88746 19.6257H6.64788C8.4083 19.6257 9.28851 18.7455 9.28851 16.985V15.2246C9.28851 13.4642 8.4083 12.584 6.64788 12.584H4.88746C3.12704 12.584 2.24683 13.4642 2.24683 15.2246V16.985C2.24683 18.7455 3.12704 19.6257 4.88746 19.6257Z" stroke="#0EDEAF" stroke-width="1.5" stroke-miterlimit="10" stroke-linecap="round" stroke-linejoin="round" />
</svg>
