<svg width="35" height="35" viewBox="0 0 35 35" fill="none" xmlns="http://www.w3.org/2000/svg">
    <rect width="35" height="35" rx="10" fill="#2F2944" />
    <g clip-path="url(#clip0_802_662)">
        <path
            d="M25.4832 11.4237C23.9721 10.749 22.3768 10.2704 20.7381 10C20.5139 10.3909 20.311 10.7931 20.1303 11.205C18.3848 10.9484 16.6097 10.9484 14.8642 11.205C14.6834 10.7932 14.4805 10.391 14.2564 10C12.6167 10.2727 11.0203 10.7524 9.50768 11.4273C6.5047 15.7602 5.69064 19.9855 6.09767 24.1508C7.85629 25.418 9.82469 26.3817 11.9173 27C12.3885 26.382 12.8054 25.7263 13.1637 25.04C12.4832 24.7921 11.8264 24.4863 11.2009 24.1261C11.3656 24.0097 11.5266 23.8897 11.6821 23.7732C13.5022 24.608 15.4887 25.0408 17.5 25.0408C19.5112 25.0408 21.4977 24.608 23.3178 23.7732C23.4752 23.8985 23.6362 24.0185 23.799 24.1261C23.1723 24.4869 22.5143 24.7933 21.8326 25.0417C22.1904 25.7277 22.6074 26.3829 23.079 27C25.1734 26.3841 27.1433 25.4209 28.9022 24.1526C29.3798 19.3221 28.0864 15.1356 25.4832 11.4237ZM13.6793 21.5891C12.545 21.5891 11.608 20.5853 11.608 19.3504C11.608 18.1154 12.5125 17.1027 13.6757 17.1027C14.8389 17.1027 15.7687 18.1154 15.7488 19.3504C15.7289 20.5853 14.8353 21.5891 13.6793 21.5891ZM21.3206 21.5891C20.1846 21.5891 19.2511 20.5853 19.2511 19.3504C19.2511 18.1154 20.1556 17.1027 21.3206 17.1027C22.4856 17.1027 23.4082 18.1154 23.3883 19.3504C23.3684 20.5853 22.4766 21.5891 21.3206 21.5891Z"
            fill="white" />
    </g>
    <defs>
        <clipPath id="clip0_802_662">
            <rect width="25" height="19" fill="white" transform="translate(4.99512 7.99414)" />
        </clipPath>
    </defs>
</svg>
    