<svg width="14" height="14" viewBox="0 0 14 14" fill="none" xmlns="http://www.w3.org/2000/svg">
  <path d="M3.01892 5.86254H4.15637C5.29382 5.86254 5.86254 5.29382 5.86254 4.15637V3.01892C5.86254 1.88147 5.29382 1.31274 4.15637 1.31274H3.01892C1.88147 1.31274 1.31274 1.88147 1.31274 3.01892V4.15637C1.31274 5.29382 1.88147 5.86254 3.01892 5.86254Z" stroke="#0EDEAF" stroke-miterlimit="10" stroke-linecap="round" stroke-linejoin="round" />
  <path d="M9.84363 5.86254H10.9811C12.1185 5.86254 12.6872 5.29382 12.6872 4.15637V3.01892C12.6872 1.88147 12.1185 1.31274 10.9811 1.31274H9.84363C8.70618 1.31274 8.13745 1.88147 8.13745 3.01892V4.15637C8.13745 5.29382 8.70618 5.86254 9.84363 5.86254Z" stroke="#0EDEAF" stroke-miterlimit="10" stroke-linecap="round" stroke-linejoin="round" />
  <path d="M8.40161 11.6187L9.20591 12.423C10.0102 13.2273 10.8145 13.2273 11.6188 12.423L12.4231 11.6187C13.2274 10.8144 13.2274 10.0101 12.4231 9.20581L11.6188 8.40152C10.8145 7.59722 10.0102 7.59722 9.20591 8.40152L8.40161 9.20581C7.59731 10.0101 7.59731 10.8144 8.40161 11.6187Z" stroke="#0EDEAF" stroke-miterlimit="10" stroke-linecap="round" stroke-linejoin="round" />
  <path d="M3.01892 12.6872H4.15637C5.29382 12.6872 5.86254 12.1185 5.86254 10.9811V9.84363C5.86254 8.70618 5.29382 8.13745 4.15637 8.13745H3.01892C1.88147 8.13745 1.31274 8.70618 1.31274 9.84363V10.9811C1.31274 12.1185 1.88147 12.6872 3.01892 12.6872Z" stroke="#0EDEAF" stroke-miterlimit="10" stroke-linecap="round" stroke-linejoin="round" />
</svg>
