<svg width="22" height="22" viewBox="0 0 22 22" fill="none" xmlns="http://www.w3.org/2000/svg">
  <path d="M20.1569 13.75C20.1569 17.2975 17.2877 20.1667 13.7402 20.1667L14.7027 18.5625" stroke="#00B8FF" stroke-width="1.5" stroke-linecap="round" stroke-linejoin="round" />
  <path d="M1.82349 8.25004C1.82349 4.70254 4.69265 1.83337 8.24015 1.83337L7.27765 3.43754" stroke="#00B8FF" stroke-width="1.5" stroke-linecap="round" stroke-linejoin="round" />
  <path d="M12.5486 4.07922L16.1969 6.18755L19.8086 4.0884" stroke="#00B8FF" stroke-width="1.5" stroke-linecap="round" stroke-linejoin="round" />
  <path d="M16.197 9.91836V6.17834" stroke="#00B8FF" stroke-width="1.5" stroke-linecap="round" stroke-linejoin="round" />
  <path d="M15.3353 2.02587L13.1353 3.245C12.6403 3.52 12.2278 4.21666 12.2278 4.78499V7.11336C12.2278 7.6817 12.6311 8.37836 13.1353 8.65336L15.3353 9.87254C15.8028 10.1384 16.5728 10.1384 17.0494 9.87254L19.2494 8.65336C19.7444 8.37836 20.1569 7.6817 20.1569 7.11336V4.78499C20.1569 4.21666 19.7536 3.52 19.2494 3.245L17.0494 2.02587C16.5819 1.76921 15.8119 1.76921 15.3353 2.02587Z" stroke="#00B8FF" stroke-width="1.5" stroke-linecap="round" stroke-linejoin="round" />
  <path d="M2.14429 14.1625L5.78345 16.2708L9.40429 14.1717" stroke="#00B8FF" stroke-width="1.5" stroke-linecap="round" stroke-linejoin="round" />
  <path d="M5.78345 20.0016V16.2616" stroke="#00B8FF" stroke-width="1.5" stroke-linecap="round" stroke-linejoin="round" />
  <path d="M4.93099 12.1091L2.73099 13.3283C2.23599 13.6033 1.82349 14.2999 1.82349 14.8682V17.1966C1.82349 17.7649 2.22682 18.4616 2.73099 18.7366L4.93099 19.9558C5.39849 20.2216 6.16848 20.2216 6.64515 19.9558L8.84516 18.7366C9.34016 18.4616 9.75265 17.7649 9.75265 17.1966V14.8682C9.75265 14.2999 9.34932 13.6033 8.84516 13.3283L6.64515 12.1091C6.16848 11.8525 5.39849 11.8525 4.93099 12.1091Z" stroke="#00B8FF" stroke-width="1.5" stroke-linecap="round" stroke-linejoin="round" />
</svg>
