<svg width="50" height="51" viewBox="0 0 50 51" fill="none" xmlns="http://www.w3.org/2000/svg">
  <path d="M15.1763 12.2089C14.0943 12.9589 12.6651 12.9589 11.583 12.1672" stroke="#00B8FF" stroke-width="2.5" stroke-miterlimit="10" stroke-linecap="round" stroke-linejoin="round" />
  <path d="M23.3424 12.2089C22.2603 12.9589 20.8311 12.9589 19.749 12.1672" stroke="#00B8FF" stroke-width="2.5" stroke-miterlimit="10" stroke-linecap="round" stroke-linejoin="round" />
  <path d="M22.8121 18.6673C22.8121 18.0423 22.3221 17.5425 21.7096 17.5425H12.8896C12.2771 17.5425 11.7871 18.0423 11.7871 18.6673C11.7871 21.7715 14.2575 24.2925 17.2996 24.2925" stroke="#00B8FF" stroke-width="2.5" stroke-miterlimit="10" stroke-linecap="round" stroke-linejoin="round" />
  <path d="M29.5491 13.1127V21.0295C23.8528 21.1336 21.4845 23.5503 21.3824 29.3628H13.6241C7.49907 29.3628 5.04907 26.8629 5.04907 20.6129V13.1127C5.04907 6.86269 7.49907 4.36279 13.6241 4.36279H20.9741C27.0991 4.36279 29.5491 6.86269 29.5491 13.1127Z" stroke="#00B8FF" stroke-width="2.5" stroke-linecap="round" stroke-linejoin="round" />
  <path d="M45.8826 29.7792V37.2794C45.8826 43.5294 43.4326 46.0293 37.3076 46.0293H29.9576C23.8326 46.0293 21.3826 43.5294 21.3826 37.2794V29.3626C21.4847 23.5501 23.853 21.1335 29.5492 21.0293H37.3076C43.4326 21.0293 45.8826 23.5292 45.8826 29.7792Z" stroke="#00B8FF" stroke-width="2.5" stroke-linecap="round" stroke-linejoin="round" />
  <path d="M31.5093 28.571C30.4273 29.321 28.9981 29.321 27.916 28.5293" stroke="#00B8FF" stroke-width="2.5" stroke-miterlimit="10" stroke-linecap="round" stroke-linejoin="round" />
  <path d="M39.6754 28.571C38.5933 29.321 37.1641 29.321 36.082 28.5293" stroke="#00B8FF" stroke-width="2.5" stroke-miterlimit="10" stroke-linecap="round" stroke-linejoin="round" />
  <path d="M29.2226 33.9045H38.0426C38.6551 33.9045 39.1451 34.4044 39.1451 35.0294C39.1451 38.1335 36.6747 40.6545 33.6326 40.6545C30.5905 40.6545 28.1201 38.1335 28.1201 35.0294C28.1201 34.4044 28.6101 33.9045 29.2226 33.9045Z" stroke="#00B8FF" stroke-width="2.5" stroke-miterlimit="10" stroke-linecap="round" stroke-linejoin="round" />
</svg>
