<svg width="24" height="24" viewBox="0 0 24 24" fill="none" xmlns="http://www.w3.org/2000/svg">
  <path d="M18.4206 18.4305L20.6121 17.3348V14.5904M14.0276 9.6545L11.8361 10.7503L14.0276 9.6545ZM11.8361 10.7503L9.64455 9.6545L11.8361 10.7503ZM11.8361 10.7503V13.4946V10.7503ZM20.6121 6.35732L18.4206 7.45309L20.6121 6.35732ZM20.6121 6.35732L18.4206 5.26155L20.6121 6.35732ZM20.6121 6.35732V9.10168V6.35732ZM14.0276 3.07001L11.8361 1.97424L9.64455 3.07001H14.0276ZM3.06006 6.35732L5.2516 5.26155L3.06006 6.35732ZM3.06006 6.35732L5.2516 7.45309L3.06006 6.35732ZM3.06006 6.35732V9.10168V6.35732ZM11.8361 21.7178L9.64455 20.6221L11.8361 21.7178ZM11.8361 21.7178L14.0276 20.6221L11.8361 21.7178ZM11.8361 21.7178V18.9735V21.7178ZM5.2516 18.4305L3.06006 17.3348V14.5904L5.2516 18.4305Z" stroke="#00B8FF" stroke-width="1.5" stroke-linecap="round" stroke-linejoin="round" />
</svg>
