<svg width="75" height="75" viewBox="0 0 75 75" fill="none" xmlns="http://www.w3.org/2000/svg">
  <path d="M16.2083 46.625V25.3334" stroke="#00B8FF" stroke-width="2" stroke-linecap="round" stroke-linejoin="round" />
  <path d="M16.9687 67.9167C22.4282 67.9167 26.8541 63.4909 26.8541 58.0313C26.8541 52.5717 22.4282 48.1459 16.9687 48.1459C11.5091 48.1459 7.08325 52.5717 7.08325 58.0313C7.08325 63.4909 11.5091 67.9167 16.9687 67.9167Z" stroke="#00B8FF" stroke-width="2" stroke-linecap="round" stroke-linejoin="round" />
  <path d="M16.2083 25.3334C21.2479 25.3334 25.3333 21.248 25.3333 16.2084C25.3333 11.1688 21.2479 7.08337 16.2083 7.08337C11.1687 7.08337 7.08325 11.1688 7.08325 16.2084C7.08325 21.248 11.1687 25.3334 16.2083 25.3334Z" stroke="#00B8FF" stroke-width="2" stroke-linecap="round" stroke-linejoin="round" />
  <path d="M58.7917 25.3334C63.8313 25.3334 67.9167 21.248 67.9167 16.2084C67.9167 11.1688 63.8313 7.08337 58.7917 7.08337C53.7521 7.08337 49.6667 11.1688 49.6667 16.2084C49.6667 21.248 53.7521 25.3334 58.7917 25.3334Z" stroke="#00B8FF" stroke-width="2" stroke-linecap="round" stroke-linejoin="round" />
  <path d="M16.6038 46.625C17.9725 41.3021 22.8392 37.3479 28.5879 37.3783L39.0208 37.4088C46.99 37.4392 53.7729 32.3292 56.2671 25.2117" stroke="#00B8FF" stroke-width="2" stroke-linecap="round" stroke-linejoin="round" />
</svg>
