<svg width="51" height="51" viewBox="0 0 51 51" fill="none" xmlns="http://www.w3.org/2000/svg">
  <path d="M41.6324 29.1126C43.7955 29.1126 45.549 27.3591 45.549 25.196C45.549 23.0328 43.7955 21.2793 41.6324 21.2793C39.4692 21.2793 37.7157 23.0328 37.7157 25.196C37.7157 27.3591 39.4692 29.1126 41.6324 29.1126Z" stroke="#00B8FF" stroke-width="2.5" stroke-linecap="round" stroke-linejoin="round" />
  <path d="M41.6324 13.4461C43.7955 13.4461 45.549 11.6926 45.549 9.52946C45.549 7.36634 43.7955 5.61279 41.6324 5.61279C39.4692 5.61279 37.7157 7.36634 37.7157 9.52946C37.7157 11.6926 39.4692 13.4461 41.6324 13.4461Z" stroke="#00B8FF" stroke-width="2.5" stroke-linecap="round" stroke-linejoin="round" />
  <path d="M41.6324 44.7794C43.7955 44.7794 45.549 43.0258 45.549 40.8627C45.549 38.6996 43.7955 36.946 41.6324 36.946C39.4692 36.946 37.7157 38.6996 37.7157 40.8627C37.7157 43.0258 39.4692 44.7794 41.6324 44.7794Z" stroke="#00B8FF" stroke-width="2.5" stroke-linecap="round" stroke-linejoin="round" />
  <path d="M10.2994 29.1126C12.4625 29.1126 14.216 27.3591 14.216 25.196C14.216 23.0328 12.4625 21.2793 10.2994 21.2793C8.13624 21.2793 6.38269 23.0328 6.38269 25.196C6.38269 27.3591 8.13624 29.1126 10.2994 29.1126Z" stroke="#00B8FF" stroke-width="2.5" stroke-linecap="round" stroke-linejoin="round" />
  <path d="M14.2157 25.196H37.7157" stroke="#00B8FF" stroke-width="2.5" stroke-linecap="round" stroke-linejoin="round" />
  <path d="M37.716 9.5293H29.8827C25.966 9.5293 24.0077 11.4876 24.0077 15.4043V34.9876C24.0077 38.9043 25.966 40.8626 29.8827 40.8626H37.716" stroke="#00B8FF" stroke-width="2.5" stroke-linecap="round" stroke-linejoin="round" />
</svg>
