<svg width="51" height="51" viewBox="0 0 51 51" fill="none" xmlns="http://www.w3.org/2000/svg">
  <path d="M8.72864 21.8782C8.72864 21.9559 8.73006 22.0315 8.73284 22.1051M8.73284 22.1051C8.83931 24.9226 10.9437 24.7407 11.8711 23.5154C12.6176 22.4485 13.7109 21.7754 14.929 21.7754C17.1788 21.7754 19.0027 24.0715 19.0027 26.9039C19.0027 29.7363 17.1788 32.0325 14.929 32.0325C13.7109 32.0325 12.6176 31.3594 11.8711 30.2925C10.9195 29.0351 8.72864 28.8765 8.72864 31.9296L8.72864 42.0266C8.72864 43.1312 9.62407 44.0266 10.7286 44.0266H20.8073C23.8604 44.0266 23.7017 41.8357 22.4444 40.8842C21.3775 40.1376 20.7044 39.0444 20.7044 37.8263C20.7044 35.5764 23.0005 33.7526 25.833 33.7526C28.6654 33.7526 30.9615 35.5764 30.9615 37.8263C30.9615 39.0444 30.2884 40.1376 29.2215 40.8842C27.9642 41.8357 27.8055 44.0266 30.8587 44.0266H35.9176C37.0222 44.0266 37.9176 43.1312 37.9176 42.0266V31.8776C37.9176 28.8245 40.1085 28.9831 41.0601 30.2405C41.8066 31.3074 42.8998 31.9805 44.118 31.9805C46.3678 31.9805 48.1917 29.6843 48.1917 26.8519C48.1917 24.0195 46.3678 21.7234 44.118 21.7234C42.8998 21.7234 41.8066 22.3965 41.0601 23.4634C40.1085 24.7207 37.9176 24.8794 37.9176 21.8262V16.7679C37.9176 15.6634 37.0222 14.7679 35.9176 14.7679H30.8587C27.8055 14.7679 27.9642 12.5771 29.2215 11.6255C30.2884 10.879 30.9615 9.78571 30.9615 8.56758C30.9615 6.31775 28.6654 4.4939 25.833 4.4939C23.0005 4.4939 20.7044 6.31775 20.7044 8.56758C20.7044 9.78571 21.3775 10.879 22.4444 11.6255C23.7018 12.5771 23.8604 14.7679 20.8073 14.7679H10.7328C9.62827 14.7679 8.73284 15.6634 8.73284 16.7679V22.1051Z" stroke="#00B8FF" stroke-width="2" />
</svg>
