<svg width="75" height="75" viewBox="0 0 75 75" fill="none" xmlns="http://www.w3.org/2000/svg">
<path d="M24.6468 67.858H8.38184C6.1727 67.858 4.38184 66.0671 4.38184 63.858L4.38184 47.5622C4.38184 42.4397 8.05759 42.7059 9.6541 44.8154C10.9066 46.6054 12.7408 47.7347 14.7845 47.7347C18.5592 47.7347 21.6191 43.8824 21.6191 39.1303C21.6191 34.3782 18.5592 30.5258 14.7845 30.5258C12.7408 30.5258 10.9066 31.6551 9.6541 33.4451C8.09821 35.501 4.56752 35.8061 4.38888 31.079M4.38184 30.6984C4.38184 30.8287 4.38422 30.9555 4.38888 31.079M4.38888 31.079V22.769C4.38888 20.5599 6.17974 18.769 8.38888 18.769L24.6468 18.7691C29.7693 18.7691 29.5031 15.0933 27.3936 13.4968C25.6036 12.2443 24.4743 10.4101 24.4743 8.36639C24.4743 4.59171 28.3266 1.53174 33.0787 1.53174C37.8308 1.53174 41.6831 4.59171 41.6831 8.36639C41.6831 10.4101 40.5538 12.2443 38.7639 13.4968C36.6544 15.0933 36.3882 18.769 41.5106 18.769H49.3538C51.563 18.769 53.3538 20.5599 53.3538 22.7691V30.6112C53.3538 35.7336 57.0296 35.4674 58.6261 33.3579C59.8786 31.5679 61.7128 30.4386 63.7565 30.4386C67.5312 30.4386 70.5911 34.291 70.5911 39.043C70.6811 39.5508 70.8199 46.8875 64.9966 47.0101" stroke="#00B8FF" stroke-width="2" stroke-linecap="round"/>
<path d="M59.4795 52.9821V63.2938C59.4795 64.9823 58.5749 66.5503 57.1126 67.4096L48.1576 72.5805C46.6953 73.4248 44.8862 73.4248 43.4088 72.5805L34.4538 67.4096C32.9915 66.5653 32.0869 64.9974 32.0869 63.2938V52.9821C32.0869 51.2936 32.9915 49.7257 34.4538 48.8664L43.4088 43.6954C44.8711 42.8512 46.6802 42.8512 48.1576 43.6954L57.1126 48.8664C58.5749 49.7257 59.4795 51.2786 59.4795 52.9821Z" stroke="#1BFF68" stroke-width="2" stroke-linecap="round" stroke-linejoin="round"/>
<path d="M45.791 56.6305C47.7309 56.6305 49.3036 55.0578 49.3036 53.1178C49.3036 51.1778 47.7309 49.6052 45.791 49.6052C43.851 49.6052 42.2783 51.1778 42.2783 53.1178C42.2783 55.0578 43.851 56.6305 45.791 56.6305Z" stroke="#1BFF68" stroke-width="2" stroke-linecap="round" stroke-linejoin="round"/>
<path d="M51.8213 65.1633C51.8213 62.4496 49.1228 60.2487 45.791 60.2487C42.4593 60.2487 39.7607 62.4496 39.7607 65.1633" stroke="#1BFF68" stroke-width="2" stroke-linecap="round" stroke-linejoin="round"/>
</svg>
