<svg width="27" height="27" viewBox="0 0 27 27" fill="none" xmlns="http://www.w3.org/2000/svg">
  <path d="M1.03516 11.8277C1.03516 11.8757 1.03603 11.9224 1.03775 11.9679M1.03775 11.9679C1.10356 13.7092 2.40416 13.5968 2.97731 12.8395C3.43868 12.1801 4.11435 11.7641 4.8672 11.7641C6.25769 11.7641 7.3849 13.1832 7.3849 14.9337C7.3849 16.6843 6.25769 18.1034 4.8672 18.1034C4.11435 18.1034 3.43868 17.6874 2.97731 17.028C2.3892 16.2509 1.03516 16.1529 1.03516 18.0398L1.03516 23.5162C1.03516 24.6208 1.93059 25.5162 3.03516 25.5162H8.50021C10.3872 25.5162 10.2891 24.1622 9.51202 23.5741C8.85265 23.1127 8.43665 22.437 8.43665 21.6842C8.43665 20.2937 9.85574 19.1665 11.6063 19.1665C13.3568 19.1665 14.7759 20.2937 14.7759 21.6842C14.7759 22.437 14.3599 23.1127 13.7005 23.5741C12.9234 24.1622 12.8254 25.5162 14.7123 25.5162H17.0751C18.1796 25.5162 19.0751 24.6208 19.0751 23.5162V18.0077C19.0751 16.1207 20.4291 16.2188 21.0172 16.9959C21.4786 17.6552 22.1543 18.0712 22.9071 18.0712C24.2976 18.0712 25.4248 16.6521 25.4248 14.9016C25.4248 13.1511 24.2976 11.732 22.9071 11.732C22.1543 11.732 21.4786 12.148 21.0172 12.8074C20.4291 13.5844 19.0751 13.6825 19.0751 11.7955V9.43324C19.0751 8.32867 18.1796 7.43324 17.0751 7.43324H14.7123C12.8254 7.43324 12.9234 6.07919 13.7005 5.49108C14.3599 5.02971 14.7759 4.35404 14.7759 3.60119C14.7759 2.21071 13.3568 1.0835 11.6063 1.0835C9.85574 1.0835 8.43665 2.21071 8.43665 3.60119C8.43665 4.35404 8.85265 5.02971 9.51203 5.49108C10.2891 6.07919 10.3872 7.43324 8.50021 7.43324H3.03775C1.93318 7.43324 1.03775 8.32867 1.03775 9.43324V11.9679Z" stroke="#1BFF68" stroke-width="1.5" />
</svg>
