<svg width="30" height="28" viewBox="0 0 30 28" fill="none" xmlns="http://www.w3.org/2000/svg">
  <path d="M22.565 19.4982L23.0362 23.0532C23.1571 23.9869 22.0816 24.6394 21.2237 24.1557L16.1608 21.3544C15.605 21.3544 15.0612 21.3207 14.5296 21.2532C15.4237 20.2745 15.9554 19.0369 15.9554 17.6982C15.9554 14.5032 12.9829 11.9157 9.30955 11.9157C7.90788 11.9157 6.61497 12.287 5.53955 12.9395C5.5033 12.6582 5.49121 12.3769 5.49121 12.0844C5.49121 6.96569 10.2641 2.81445 16.1608 2.81445C22.0575 2.81445 26.8304 6.96569 26.8304 12.0844C26.8304 15.1219 25.1508 17.8107 22.565 19.4982Z" stroke="#1BFF68" stroke-width="1.5" stroke-linecap="round" stroke-linejoin="round" />
  <path d="M15.9554 17.6982C15.9554 19.037 15.4237 20.2745 14.5295 21.2533C13.3333 22.6033 11.4362 23.4695 9.30953 23.4695L6.15578 25.2132C5.62411 25.517 4.94744 25.1007 5.01994 24.527L5.32203 22.3108C3.70286 21.2645 2.6637 19.5882 2.6637 17.6982C2.6637 15.7182 3.79954 13.9745 5.53954 12.9395C6.61495 12.287 7.90786 11.9158 9.30953 11.9158C12.9829 11.9158 15.9554 14.5032 15.9554 17.6982Z" stroke="#1BFF68" stroke-width="1.5" stroke-linecap="round" stroke-linejoin="round" />
</svg>
