<svg width="22" height="23" viewBox="0 0 22 23" fill="none" xmlns="http://www.w3.org/2000/svg">
  <path d="M16.9308 15.7271L17.2883 18.6238C17.3799 19.3846 16.5641 19.9162 15.9133 19.5221L12.0724 17.2396C11.6508 17.2396 11.2383 17.2121 10.8349 17.1571C11.5133 16.3596 11.9166 15.3513 11.9166 14.2604C11.9166 11.6571 9.66161 9.54879 6.87494 9.54879C5.81161 9.54879 4.83078 9.85127 4.01495 10.3829C3.98745 10.1538 3.97827 9.92459 3.97827 9.68626C3.97827 5.51543 7.59911 2.13293 12.0724 2.13293C16.5458 2.13293 20.1666 5.51543 20.1666 9.68626C20.1666 12.1613 18.8924 14.3521 16.9308 15.7271Z" stroke="#0EDEAF" stroke-width="1.5" stroke-linecap="round" stroke-linejoin="round" />
  <path d="M11.9166 14.2603C11.9166 15.3512 11.5133 16.3595 10.8349 17.157C9.92743 18.257 8.48825 18.9628 6.87492 18.9628L4.48242 20.3837C4.07908 20.6312 3.56575 20.292 3.62075 19.8245L3.84992 18.0187C2.62158 17.1662 1.83325 15.8003 1.83325 14.2603C1.83325 12.647 2.69492 11.2262 4.01492 10.3828C4.83076 9.85118 5.81159 9.54871 6.87492 9.54871C9.66159 9.54871 11.9166 11.657 11.9166 14.2603Z" stroke="#0EDEAF" stroke-width="1.5" stroke-linecap="round" stroke-linejoin="round" />
</svg>
