<svg width="16" height="16" viewBox="0 0 16 16" fill="none" xmlns="http://www.w3.org/2000/svg">
  <path d="M12.3133 11.2199L12.5733 13.3266C12.64 13.8799 12.0466 14.2666 11.5733 13.9799L8.77998 12.3199C8.47331 12.3199 8.17332 12.2999 7.87998 12.2599C8.37332 11.6799 8.66665 10.9466 8.66665 10.1532C8.66665 8.25991 7.02665 6.7266 4.99998 6.7266C4.22665 6.7266 3.51332 6.94659 2.91998 7.33325C2.89998 7.16659 2.89331 6.99991 2.89331 6.82658C2.89331 3.79325 5.52665 1.33325 8.77998 1.33325C12.0333 1.33325 14.6666 3.79325 14.6666 6.82658C14.6666 8.62658 13.74 10.2199 12.3133 11.2199Z" stroke="#ACA9B4" stroke-linecap="round" stroke-linejoin="round" />
  <path d="M8.66659 10.1532C8.66659 10.9465 8.37326 11.6799 7.87992 12.2599C7.21992 13.0599 6.17325 13.5732 4.99992 13.5732L3.25992 14.6065C2.96658 14.7865 2.59325 14.5399 2.63325 14.1999L2.79992 12.8866C1.90658 12.2666 1.33325 11.2732 1.33325 10.1532C1.33325 8.97986 1.95992 7.94654 2.91992 7.33321C3.51326 6.94654 4.22659 6.72656 4.99992 6.72656C7.02659 6.72656 8.66659 8.25986 8.66659 10.1532Z" stroke="#ACA9B4" stroke-linecap="round" stroke-linejoin="round" />
</svg>
