<svg width="143" height="30" viewBox="0 0 143 30" fill="none" xmlns="http://www.w3.org/2000/svg">
  <path d="M14.298 0.536621L17.5081 10.4163H27.8961L19.492 16.5222L22.7021 26.4019L14.298 20.2959L5.89383 26.4019L9.10392 16.5222L0.699792 10.4163H11.0879L14.298 0.536621Z" fill="#00B67A" />
  <path d="M42.8942 0.536621L46.1042 10.4163H56.4923L48.0882 16.5222L51.2983 26.4019L42.8942 20.2959L34.49 26.4019L37.7001 16.5222L29.296 10.4163H39.6841L42.8942 0.536621Z" fill="#00B67A" />
  <path d="M71.4903 0.536621L74.7004 10.4163H85.0885L76.6844 16.5222L79.8945 26.4019L71.4903 20.2959L63.0862 26.4019L66.2963 16.5222L57.8922 10.4163H68.2803L71.4903 0.536621Z" fill="#00B67A" />
  <path d="M100.086 0.536621L103.296 10.4163H113.684L105.28 16.5222L108.49 26.4019L100.086 20.2959L91.6822 26.4019L94.8923 16.5222L86.4881 10.4163H96.8762L100.086 0.536621Z" fill="#00B67A" />
  <path d="M128.682 0.536621L131.893 10.4163H142.281L133.877 16.5222L137.087 26.4019L128.682 20.2959L120.278 26.4019L123.488 16.5222L115.084 10.4163H125.472L128.682 0.536621Z" fill="#00B67A" />
</svg>
