<svg xmlns="http://www.w3.org/2000/svg" width="96" height="19" viewBox="0 0 96 19" fill="none">
  <g clip-path="url(#clip0_224_3912)">
    <path d="M18.2363 0.952148H0.423828V18.9521H18.2363V0.952148Z" fill="#2F2944" />
    <path d="M37.5332 0.952148H19.7207V18.9521H37.5332V0.952148Z" fill="#2F2944" />
    <path d="M56.8301 0.952148H39.0176V18.9521H56.8301V0.952148Z" fill="#2F2944" />
    <path d="M76.127 0.952148H58.3145V18.9521H76.127V0.952148Z" fill="#2F2944" />
    <path d="M95.4238 0.952148H77.6113V18.9521H95.4238V0.952148Z" fill="#2F2944" />
    <path d="M9.33008 13.0835L12.0391 12.3897L13.1709 15.9147L9.33008 13.0835ZM15.5645 8.52725H10.7959L9.33008 3.98975L7.86426 8.52725H3.0957L6.95508 11.3397L5.48926 15.8772L9.34863 13.0647L11.7236 11.3397L15.5645 8.52725Z" fill="#00B67A" />
    <path d="M28.627 13.0835L31.3359 12.3897L32.4678 15.9147L28.627 13.0835ZM34.8613 8.52725H30.0928L28.627 3.98975L27.1611 8.52725H22.3926L26.252 11.3397L24.7861 15.8772L28.6455 13.0647L31.0205 11.3397L34.8613 8.52725Z" fill="#00B67A" />
    <path d="M47.9238 13.0835L50.6328 12.3897L51.7647 15.9147L47.9238 13.0835ZM54.1582 8.52725H49.3896L47.9238 3.98975L46.458 8.52725H41.6895L45.5488 11.3397L44.083 15.8772L47.9424 13.0647L50.3174 11.3397L54.1582 8.52725Z" fill="#00B67A" />
    <path d="M67.2207 13.0835L69.9297 12.3897L71.0615 15.9147L67.2207 13.0835ZM73.4551 8.52725H68.6865L67.2207 3.98975L65.7549 8.52725H60.9863L64.8457 11.3397L63.3799 15.8772L67.2393 13.0647L69.6143 11.3397L73.4551 8.52725Z" fill="#00B67A" />
    <path d="M86.5176 13.0835L89.2266 12.3897L90.3584 15.9147L86.5176 13.0835ZM92.752 8.52725H87.9834L86.5176 3.98975L85.0518 8.52725H80.2832L84.1426 11.3397L82.6768 15.8772L86.5361 13.0647L88.9111 11.3397L92.752 8.52725Z" fill="#00B67A" />
  </g>
  <defs>
    <clipPath id="clip0_224_3912">
      <rect width="95" height="18" fill="white" transform="translate(0.423828 0.952148)" />
    </clipPath>
  </defs>
</svg>
