<svg xmlns="http://www.w3.org/2000/svg" width="68" height="17" viewBox="0 0 68 17" fill="none">
  <path d="M17.8983 5.896H24.6903V7.16902H22.0197V14.3253H20.5511V7.16902H17.8923V5.896H17.8983ZM24.4002 8.22195H25.6556V9.39979H25.6792C25.7207 9.23323 25.7977 9.07261 25.9102 8.91795C26.0227 8.76328 26.1589 8.61456 26.3188 8.48964C26.4787 8.35877 26.6563 8.25764 26.8517 8.17436C27.0471 8.09702 27.2485 8.05538 27.4498 8.05538C27.6038 8.05538 27.7163 8.06133 27.7755 8.06728C27.8347 8.07323 27.8939 8.08513 27.9591 8.09107V9.3879C27.8643 9.37005 27.7696 9.35815 27.6689 9.34625C27.5682 9.33436 27.4735 9.32841 27.3788 9.32841C27.1537 9.32841 26.9406 9.376 26.7392 9.46523C26.5379 9.55446 26.3662 9.69128 26.2181 9.86379C26.0701 10.0423 25.9516 10.2564 25.8628 10.5182C25.774 10.7799 25.7325 11.0773 25.7325 11.4164V14.3194H24.3943V8.22195H24.4002ZM34.1116 14.3253H32.797V13.4747H32.7733C32.6075 13.784 32.3647 14.0279 32.0391 14.2123C31.7134 14.3967 31.3818 14.4919 31.0442 14.4919C30.2448 14.4919 29.6645 14.2956 29.3092 13.897C28.9539 13.4985 28.7763 12.8976 28.7763 12.0946V8.22195H30.1145V11.9637C30.1145 12.4991 30.2152 12.8798 30.4225 13.0999C30.6238 13.32 30.914 13.433 31.2811 13.433C31.5653 13.433 31.7963 13.3914 31.9858 13.3022C32.1753 13.2129 32.3292 13.0999 32.4417 12.9512C32.5602 12.8084 32.6431 12.6299 32.6964 12.4277C32.7496 12.2254 32.7733 12.0053 32.7733 11.7674V8.22789H34.1116V14.3253ZM36.3914 12.3682C36.4329 12.7608 36.5809 13.0345 36.8356 13.1951C37.0961 13.3497 37.404 13.433 37.7653 13.433C37.8896 13.433 38.0317 13.4211 38.1916 13.4033C38.3515 13.3854 38.5055 13.3438 38.6417 13.2903C38.7838 13.2367 38.8963 13.1534 38.991 13.0464C39.0799 12.9393 39.1213 12.8025 39.1154 12.6299C39.1095 12.4574 39.0443 12.3147 38.9259 12.2076C38.8075 12.0946 38.6594 12.0113 38.4758 11.9399C38.2923 11.8745 38.085 11.815 37.8482 11.7674C37.6113 11.7198 37.3744 11.6663 37.1316 11.6127C36.8829 11.5592 36.6401 11.4878 36.4092 11.4105C36.1783 11.3331 35.971 11.226 35.7874 11.0892C35.6039 10.9584 35.4558 10.7858 35.3492 10.5776C35.2367 10.3694 35.1834 10.1136 35.1834 9.80431C35.1834 9.47118 35.2663 9.19754 35.4262 8.97148C35.5861 8.74543 35.7934 8.56697 36.0361 8.43015C36.2849 8.29333 36.5572 8.19815 36.8592 8.13866C37.1613 8.08513 37.4514 8.05538 37.7238 8.05538C38.0376 8.05538 38.3396 8.09107 38.6239 8.15651C38.9081 8.22195 39.1687 8.32902 39.3996 8.48369C39.6306 8.63241 39.8201 8.82871 39.974 9.06666C40.128 9.30461 40.2227 9.5961 40.2642 9.93518H38.8667C38.8015 9.61395 38.6594 9.39384 38.4285 9.28677C38.1975 9.17374 37.9311 9.1202 37.635 9.1202C37.5402 9.1202 37.4277 9.12615 37.2974 9.144C37.1672 9.16184 37.0487 9.19159 36.9303 9.23323C36.8178 9.27487 36.7231 9.3403 36.6401 9.42359C36.5632 9.50687 36.5217 9.61395 36.5217 9.75077C36.5217 9.91733 36.5809 10.0482 36.6934 10.1493C36.806 10.2505 36.954 10.3337 37.1376 10.4051C37.3211 10.4706 37.5284 10.53 37.7653 10.5776C38.0021 10.6252 38.2449 10.6788 38.4936 10.7323C38.7364 10.7858 38.9733 10.8572 39.2101 10.9346C39.447 11.0119 39.6542 11.119 39.8378 11.2558C40.0214 11.3926 40.1694 11.5592 40.2819 11.7614C40.3944 11.9637 40.4537 12.2195 40.4537 12.5169C40.4537 12.8798 40.3708 13.1832 40.205 13.439C40.0392 13.6888 39.826 13.897 39.5654 14.0517C39.3049 14.2064 39.0088 14.3253 38.689 14.3967C38.3693 14.4681 38.0495 14.5038 37.7356 14.5038C37.3507 14.5038 36.9954 14.4622 36.6698 14.3729C36.3441 14.2837 36.0598 14.1528 35.823 13.9803C35.5861 13.8018 35.3966 13.5817 35.2604 13.32C35.1242 13.0583 35.0532 12.743 35.0413 12.3801H36.3914V12.3682ZM40.809 8.22195H41.8216V6.38974H43.1598V8.22195H44.3678V9.22728H43.1598V12.4872C43.1598 12.6299 43.1658 12.7489 43.1776 12.856C43.1894 12.9571 43.2191 13.0464 43.2605 13.1177C43.302 13.1891 43.3671 13.2427 43.4559 13.2784C43.5447 13.3141 43.6573 13.3319 43.8112 13.3319C43.906 13.3319 44.0007 13.3319 44.0955 13.3259C44.1902 13.32 44.2849 13.3081 44.3797 13.2843V14.3253C44.2317 14.3432 44.0836 14.3551 43.9474 14.3729C43.8053 14.3908 43.6632 14.3967 43.5151 14.3967C43.1598 14.3967 42.8756 14.361 42.6624 14.2956C42.4492 14.2302 42.2775 14.129 42.1591 13.9982C42.0347 13.8673 41.9578 13.7067 41.9104 13.5104C41.8689 13.3141 41.8393 13.088 41.8334 12.8382V9.23918H40.8208V8.22195H40.809ZM45.3153 8.22195H46.5825V9.04882H46.6062C46.7957 8.6919 47.0563 8.44205 47.3938 8.28738C47.7313 8.13272 48.0925 8.05538 48.4893 8.05538C48.9689 8.05538 49.3835 8.13866 49.7388 8.31118C50.094 8.47774 50.3901 8.70974 50.627 9.00718C50.8639 9.30461 51.0356 9.64964 51.154 10.0423C51.2724 10.4349 51.3317 10.8572 51.3317 11.3034C51.3317 11.7138 51.2784 12.1124 51.1718 12.4931C51.0652 12.8798 50.9053 13.2189 50.6921 13.5163C50.479 13.8137 50.2066 14.0457 49.8749 14.2242C49.5433 14.4027 49.1584 14.4919 48.7084 14.4919C48.513 14.4919 48.3176 14.4741 48.1221 14.4384C47.9267 14.4027 47.7372 14.3432 47.5596 14.2658C47.3819 14.1885 47.2102 14.0874 47.0622 13.9625C46.9082 13.8375 46.7839 13.6948 46.6773 13.5342H46.6536V16.5799H45.3153V8.22195ZM49.9934 11.2796C49.9934 11.0059 49.9578 10.7383 49.8868 10.4765C49.8157 10.2148 49.7091 9.98872 49.567 9.78646C49.4249 9.5842 49.2473 9.42359 49.04 9.30461C48.8268 9.18564 48.584 9.1202 48.3116 9.1202C47.7491 9.1202 47.3227 9.31651 47.0385 9.70913C46.7543 10.1017 46.6121 10.6252 46.6121 11.2796C46.6121 11.5889 46.6477 11.8745 46.7246 12.1362C46.8016 12.3979 46.9082 12.624 47.0622 12.8144C47.2102 13.0047 47.3879 13.1534 47.5951 13.2605C47.8024 13.3735 48.0452 13.4271 48.3176 13.4271C48.6255 13.4271 48.8801 13.3616 49.0933 13.2367C49.3065 13.1118 49.4782 12.9452 49.6144 12.7489C49.7506 12.5467 49.8513 12.3206 49.9105 12.0648C49.9638 11.809 49.9934 11.5473 49.9934 11.2796ZM52.3561 5.896H53.6944V7.16902H52.3561V5.896ZM52.3561 8.22195H53.6944V14.3253H52.3561V8.22195ZM54.8905 5.896H56.2288V14.3253H54.8905V5.896ZM60.3325 14.4919C59.8469 14.4919 59.4147 14.4086 59.0357 14.248C58.6567 14.0874 58.3369 13.8613 58.0704 13.5817C57.8099 13.2962 57.6086 12.9571 57.4724 12.5645C57.3362 12.1719 57.2651 11.7376 57.2651 11.2677C57.2651 10.8037 57.3362 10.3754 57.4724 9.98277C57.6086 9.59015 57.8099 9.25107 58.0704 8.96554C58.331 8.68 58.6567 8.45989 59.0357 8.29928C59.4147 8.13866 59.8469 8.05538 60.3325 8.05538C60.8181 8.05538 61.2504 8.13866 61.6293 8.29928C62.0083 8.45989 62.3281 8.68595 62.5946 8.96554C62.8551 9.25107 63.0564 9.59015 63.1926 9.98277C63.3288 10.3754 63.3999 10.8037 63.3999 11.2677C63.3999 11.7376 63.3288 12.1719 63.1926 12.5645C63.0564 12.9571 62.8551 13.2962 62.5946 13.5817C62.334 13.8673 62.0083 14.0874 61.6293 14.248C61.2504 14.4086 60.8181 14.4919 60.3325 14.4919ZM60.3325 13.4271C60.6286 13.4271 60.8891 13.3616 61.1082 13.2367C61.3273 13.1118 61.505 12.9452 61.6471 12.743C61.7892 12.5407 61.8899 12.3087 61.961 12.0529C62.0261 11.7971 62.0616 11.5354 62.0616 11.2677C62.0616 11.0059 62.0261 10.7502 61.961 10.4884C61.8958 10.2267 61.7892 10.0006 61.6471 9.79836C61.505 9.5961 61.3273 9.43548 61.1082 9.31056C60.8891 9.18564 60.6286 9.1202 60.3325 9.1202C60.0364 9.1202 59.7759 9.18564 59.5568 9.31056C59.3377 9.43548 59.16 9.60205 59.0179 9.79836C58.8758 10.0006 58.7751 10.2267 58.7041 10.4884C58.6389 10.7502 58.6034 11.0059 58.6034 11.2677C58.6034 11.5354 58.6389 11.7971 58.7041 12.0529C58.7692 12.3087 58.8758 12.5407 59.0179 12.743C59.16 12.9452 59.3377 13.1118 59.5568 13.2367C59.7759 13.3676 60.0364 13.4271 60.3325 13.4271ZM63.7907 8.22195H64.8033V6.38974H66.1416V8.22195H67.3496V9.22728H66.1416V12.4872C66.1416 12.6299 66.1475 12.7489 66.1594 12.856C66.1712 12.9571 66.2008 13.0464 66.2423 13.1177C66.2837 13.1891 66.3489 13.2427 66.4377 13.2784C66.5265 13.3141 66.639 13.3319 66.793 13.3319C66.8877 13.3319 66.9825 13.3319 67.0772 13.3259C67.172 13.32 67.2667 13.3081 67.3615 13.2843V14.3253C67.2134 14.3432 67.0654 14.3551 66.9292 14.3729C66.7871 14.3908 66.6449 14.3967 66.4969 14.3967C66.1416 14.3967 65.8574 14.361 65.6442 14.2956C65.431 14.2302 65.2593 14.129 65.1409 13.9982C65.0165 13.8673 64.9395 13.7067 64.8921 13.5104C64.8507 13.3141 64.8211 13.088 64.8152 12.8382V9.23918H63.8026V8.22195H63.7907Z" fill="#ACA9B4" />
  <path d="M16.3349 5.89595H10.2001L8.30515 0.0305176L6.40432 5.89595L0.269531 5.89001L5.23776 9.51873L3.33692 15.3782L8.30515 11.7554L13.2675 15.3782L11.3725 9.51873L16.3349 5.89595Z" fill="#ACA9B4" />
  <path d="M11.7998 10.8454L11.3734 9.5188L8.30603 11.7555L11.7998 10.8454Z" fill="#18132A" />
</svg>