<svg width="16" height="16" viewBox="0 0 16 16" fill="none" xmlns="http://www.w3.org/2000/svg">
  <path d="M6.66675 11.6667H9.33341" stroke="#ACA9B4" stroke-linecap="round" stroke-linejoin="round" />
  <path d="M1.33325 11.6667V5.00008C1.33325 2.33341 1.99992 1.66675 4.66659 1.66675" stroke="#ACA9B4" stroke-linecap="round" stroke-linejoin="round" />
  <path d="M14.6666 11.6667V5.00008C14.6666 2.33341 13.9999 1.66675 11.3333 1.66675" stroke="#ACA9B4" stroke-linecap="round" stroke-linejoin="round" />
  <path d="M6.66658 10.6067V12.8C6.66658 14.1333 6.13325 14.6667 4.79992 14.6667H3.19992C1.86659 14.6667 1.33325 14.1333 1.33325 12.8V10.6067C1.33325 9.27332 1.86659 8.73999 3.19992 8.73999H4.79992C6.13325 8.73999 6.66658 9.27332 6.66658 10.6067Z" stroke="#ACA9B4" stroke-linecap="round" stroke-linejoin="round" />
  <path d="M14.6666 10.6067V12.8C14.6666 14.1333 14.1333 14.6667 12.7999 14.6667H11.1999C9.86658 14.6667 9.33325 14.1333 9.33325 12.8V10.6067C9.33325 9.27332 9.86658 8.73999 11.1999 8.73999H12.7999C14.1333 8.73999 14.6666 9.27332 14.6666 10.6067Z" stroke="#ACA9B4" stroke-linecap="round" stroke-linejoin="round" />
</svg>
