<svg width="18" height="22" viewBox="0 0 18 22" fill="none" xmlns="http://www.w3.org/2000/svg">
  <path d="M7.53718 1.57346L2.76698 3.36109C1.66764 3.77215 0.769043 5.07225 0.769043 6.24807V13.3508C0.769043 14.4788 1.5147 15.9606 2.42285 16.6393L6.53344 19.7079C7.88134 20.7212 10.0991 20.7212 11.447 19.7079L15.5576 16.6393C16.4658 15.9606 17.2114 14.4788 17.2114 13.3508V6.24807C17.2114 5.07225 16.3128 3.77215 15.2135 3.36109L10.4433 1.57346C9.63073 1.27711 8.33062 1.27711 7.53718 1.57346Z" stroke="#00B8FF" stroke-width="1.5" stroke-linecap="round" stroke-linejoin="round" />
  <path d="M9.29117 8.35095V10.1897C9.29117 10.8009 9.168 11.0546 8.62661 11.369L7.10815 12.2804" stroke="#00B8FF" stroke-width="1.5" stroke-miterlimit="10" stroke-linecap="round" stroke-linejoin="round" />
</svg>
