<svg width="25" height="25" viewBox="0 0 25 25" fill="none" xmlns="http://www.w3.org/2000/svg">
  <path d="M21.2703 8.92745V15.7674C21.2703 16.8874 20.6703 17.9275 19.7003 18.4975L13.7603 21.9274C12.7903 22.4874 11.5903 22.4874 10.6103 21.9274L4.67034 18.4975C3.70034 17.9375 3.10034 16.8974 3.10034 15.7674V8.92745C3.10034 7.80745 3.70034 6.7674 4.67034 6.1974L10.6103 2.76741C11.5803 2.20741 12.7803 2.20741 13.7603 2.76741L19.7003 6.1974C20.6703 6.7674 21.2703 7.79745 21.2703 8.92745Z" stroke="white" stroke-width="1.5" stroke-linecap="round" stroke-linejoin="round" />
  <path d="M12.1904 11.3475C13.4772 11.3475 14.5204 10.3043 14.5204 9.01746C14.5204 7.73063 13.4772 6.6875 12.1904 6.6875C10.9035 6.6875 9.86035 7.73063 9.86035 9.01746C9.86035 10.3043 10.9035 11.3475 12.1904 11.3475Z" stroke="white" stroke-width="1.5" stroke-linecap="round" stroke-linejoin="round" />
  <path d="M16.1904 17.0075C16.1904 15.2075 14.4004 13.7476 12.1904 13.7476C9.98043 13.7476 8.19043 15.2075 8.19043 17.0075" stroke="white" stroke-width="1.5" stroke-linecap="round" stroke-linejoin="round" />
</svg>
