<svg width="28" height="28" viewBox="0 0 28 28" fill="none" xmlns="http://www.w3.org/2000/svg">
  <path d="M5.87207 17.6455V9.77051" stroke="#1BFF68" stroke-width="1.5" stroke-linecap="round" stroke-linejoin="round" />
  <path d="M6.15332 25.5205C8.17261 25.5205 9.80957 23.8835 9.80957 21.8643C9.80957 19.845 8.17261 18.208 6.15332 18.208C4.13403 18.208 2.49707 19.845 2.49707 21.8643C2.49707 23.8835 4.13403 25.5205 6.15332 25.5205Z" stroke="#1BFF68" stroke-width="1.5" stroke-linecap="round" stroke-linejoin="round" />
  <path d="M5.87207 9.77051C7.73603 9.77051 9.24707 8.25947 9.24707 6.39551C9.24707 4.53155 7.73603 3.02051 5.87207 3.02051C4.00811 3.02051 2.49707 4.53155 2.49707 6.39551C2.49707 8.25947 4.00811 9.77051 5.87207 9.77051Z" stroke="#1BFF68" stroke-width="1.5" stroke-linecap="round" stroke-linejoin="round" />
  <path d="M21.6221 9.77051C23.486 9.77051 24.9971 8.25947 24.9971 6.39551C24.9971 4.53155 23.486 3.02051 21.6221 3.02051C19.7581 3.02051 18.2471 4.53155 18.2471 6.39551C18.2471 8.25947 19.7581 9.77051 21.6221 9.77051Z" stroke="#1BFF68" stroke-width="1.5" stroke-linecap="round" stroke-linejoin="round" />
  <path d="M6.01831 17.6456C6.52456 15.6768 8.32456 14.2143 10.4508 14.2256L14.3096 14.2368C17.2571 14.2481 19.7658 12.3581 20.6883 9.72559" stroke="#1BFF68" stroke-width="1.5" stroke-linecap="round" stroke-linejoin="round" />
</svg>
