<svg width="28" height="27" viewBox="0 0 28 27" fill="none" xmlns="http://www.w3.org/2000/svg">
  <path d="M25.4268 6.1227V10.131C25.4268 12.5685 24.4143 13.5435 21.883 13.5435H18.8455C16.3143 13.5435 15.3018 12.5685 15.3018 10.131V6.1227C15.3018 3.68521 16.3143 2.71021 18.8455 2.71021H21.883C24.4143 2.71021 25.4268 3.68521 25.4268 6.1227Z" stroke="#1BFF68" stroke-width="1.5" stroke-linecap="round" stroke-linejoin="round" />
  <path d="M13.0518 16.956V20.9643C13.0518 23.4018 12.0393 24.3768 9.50801 24.3768H6.47051C3.93926 24.3768 2.92676 23.4018 2.92676 20.9643V16.956C2.92676 14.5185 3.93926 13.5435 6.47051 13.5435H9.50801C12.0393 13.5435 13.0518 14.5185 13.0518 16.956Z" stroke="#1BFF68" stroke-width="1.5" stroke-linecap="round" stroke-linejoin="round" />
  <path d="M25.4268 16.7935C25.4268 20.986 21.9055 24.3768 17.5518 24.3768L18.733 22.481" stroke="#1BFF68" stroke-width="1.5" stroke-linecap="round" stroke-linejoin="round" />
  <path d="M2.92676 10.2935C2.92676 6.10104 6.44801 2.71021 10.8018 2.71021L9.62051 4.60604" stroke="#1BFF68" stroke-width="1.5" stroke-linecap="round" stroke-linejoin="round" />
</svg>
